<?xml version="1.0" encoding="utf-8"?>
<!-- Generator: Adobe Illustrator 26.0.3, SVG Export Plug-In . SVG Version: 6.00 Build 0)  -->
<svg version="1.1" id="Layer_1" xmlns="http://www.w3.org/2000/svg" xmlns:xlink="http://www.w3.org/1999/xlink" x="0px" y="0px"
	 viewBox="0 0 512 512" style="enable-background:new 0 0 512 512;" xml:space="preserve">
<style type="text/css">
	.st0{fill:#DFCA4E;}
	.st1{fill:#C9AB2D;}
	.st2{fill:#EA2C0B;}
	.st3{fill:none;}
</style>
<circle class="st0" cx="255.63" cy="256" r="256"/>
<path class="st1" d="M512,256c0,12.13-0.84,24.05-2.47,35.73c-9.59,68.66-46.42,128.6-99.22,168.54
	c-17.94,13.58-37.72,24.85-58.91,33.35C321.92,505.48,289.72,512,256,512c-20.1,0-39.65-2.32-58.41-6.7h-0.01l-70.46-70.46
	l95.85-69.65L256,341.2l128.88,93.64l-49.23-151.51l95.84-69.64l33.03-23.99l46.74,46.74C511.75,242.9,512,249.42,512,256z"/>
<path class="st0" d="M256,0C114.62,0,0,114.62,0,256c0,121.28,84.35,222.87,197.58,249.3l-70.46-70.46l40.59-124.91L47.48,189.7
	h159.29L256,38.2l151.5,151.5h57.02l46.74,46.74C501.27,104.2,390.8,0,256,0z"/>
<polygon class="st2" points="431.49,213.69 335.65,283.33 384.88,434.84 256,341.2 222.97,365.19 127.12,434.84 167.71,309.93 
	176.35,283.33 47.48,189.7 206.77,189.7 256,38.2 305.23,189.7 464.52,189.7 "/>
<polygon class="st1" points="176.35,283.33 167.71,309.93 47.48,189.7 "/>
<line class="st3" x1="197.7" y1="505.41" x2="197.59" y2="505.3"/>
<polygon class="st1" points="407.5,189.7 305.23,189.7 256,38.2 "/>
</svg>
