<?xml version="1.0" encoding="utf-8"?>
<!-- Generator: Adobe Illustrator 26.0.3, SVG Export Plug-In . SVG Version: 6.00 Build 0)  -->
<svg version="1.1" id="Layer_2_00000163795381284589812900000008239749103711212450_"
	 xmlns="http://www.w3.org/2000/svg" xmlns:xlink="http://www.w3.org/1999/xlink" x="0px" y="0px" viewBox="0 0 512 512"
	 style="enable-background:new 0 0 512 512;" xml:space="preserve">
<style type="text/css">
	.st0{fill:#DFCA4E;}
	.st1{fill:#C9AB2D;}
	.st2{fill:#EA2C0B;}
	.st3{fill:none;}
</style>
<circle class="st0" cx="256" cy="256" r="255.8"/>
<path class="st1" d="M504.5,317.6c-26.8,108.7-123.1,190-239,194.2L142.8,389.1c7.5,5.8,16.9,9.3,27.1,9.3h172.1
	c24.5,0,44.3-19.8,44.3-44.3V279c0-6,4.9-10.9,10.9-10.9c21.2,0,31.9-25.4,17.2-40.6L504.5,317.6z"/>
<path class="st0" d="M512,256C512,114.6,397.4,0,256,0S0,114.6,0,256s114.6,256,256,256c3.2,0,6.3-0.1,9.5-0.2L142.8,389.1
	c7.5,5.8,16.9,9.3,27.1,9.3h172.1c24.5,0,44.3-19.8,44.3-44.3V279c0-6,4.9-10.9,10.9-10.9c21.2,0,31.9-25.4,17.2-40.6l90.1,90.1
	C509.4,297.9,512,277.2,512,256z M114.8,268.1c6,0,10.9,4.9,10.9,10.9v8.7l-22.6-22.6C106.4,267,110.4,268.1,114.8,268.1z"/>
<path class="st2" d="M397.2,268.1c-6,0-10.9,4.9-10.9,10.9v75.2c0,24.5-19.8,44.3-44.3,44.3H169.9c-10.2,0-19.6-3.5-27.1-9.3
	c-10.4-8.1-17.2-20.8-17.2-35V279c0-6-4.9-10.9-10.9-10.9c-4.4,0-8.3-1.1-11.7-3c-3.9-2.2-7-5.3-9.1-9.1l0,0c-2-3.6-3.2-7.8-3.2-12
	c0-5.8,2.1-11.7,6.8-16.5l28-28.8l31.4-32.3l27.9-28.6l53.9-55.5c9.4-9.6,24.9-9.6,34.3,0l53.9,55.5l27.9,28.6l31.4,32.3l28,28.8
	C429.1,242.6,418.4,268.1,397.2,268.1z"/>
<path class="st1" d="M125.7,279v8.7l-22.6-22.6c3.4,1.9,7.3,3,11.7,3C120.8,268.1,125.7,273,125.7,279z"/>
<polyline class="st3" points="103.1,265.1 94,256 94,256 "/>
</svg>
