<?xml version="1.0" encoding="utf-8"?>
<!-- Generator: Adobe Illustrator 26.0.3, SVG Export Plug-In . SVG Version: 6.00 Build 0)  -->
<svg version="1.1" id="kinoLogo" xmlns="http://www.w3.org/2000/svg" xmlns:xlink="http://www.w3.org/1999/xlink" x="0px" y="0px"
	 viewBox="0 0 512 512" style="enable-background:new 0 0 512 512;" xml:space="preserve">
<style type="text/css">
	.st0{fill:#DFCA4E;}
	.st1{fill:#EFD978;}
	.st2{fill:#891820;}
	.st3{fill:#BC2026;}
	.st4{fill:none;}
	.st5{fill:#FFFFFF;}
</style>
<g id="oscarFigure">
	<g>
		<path class="st0" d="M344.6,488.4v13.8c0,5.4-4.4,9.8-9.8,9.8H182.5c-5.4,0-9.8-4.4-9.8-9.8v-13.8c0-11.8,9.6-21.4,21.4-21.4h37.7
			c4.4-8.4,6.7-17.9,6.8-28c0.1-6.9-0.4-12.4-1.5-17c-1.2-5.4-3.2-9.6-5.8-13.4c-1.5-4.4-2.7-8.9-3.6-13.5c-1.2-6-1.8-12.2-1.8-18.5
			c0-0.9,0-1.8,0.1-2.8c0-1.6,0.1-3.2,0.2-4.7c0-0.6,0.1-1.1,0.1-1.7c0.1-1.3,0.3-2.6,0.5-3.8c0.1-0.6,0.2-1.2,0.2-1.8v0
			c0.1-0.7,0.2-1.3,0.3-2c0-0.2,0.1-0.4,0.1-0.6c0.2-1.3,0.5-2.5,0.7-3.7c0.1-0.4,0.2-0.7,0.2-1c0.2-0.7,0.3-1.3,0.5-1.9
			c0-0.1,0-0.1,0-0.1c0.2-0.7,0.4-1.5,0.6-2.2c0.1-0.2,0.1-0.4,0.2-0.6c0.2-0.7,0.4-1.5,0.7-2.2c0.2-0.7,0.4-1.3,0.6-2
			c0.1-0.2,0.1-0.4,0.2-0.6c0,0,0,0,0,0c0.3-0.8,0.6-1.6,0.9-2.4l0-0.1c2-4,2-8.8,0.1-12.9c-1.1-2.3-2.2-4.7-3.1-7.2
			c-0.1-0.3-0.2-0.6-0.3-0.8c-0.4-0.9-0.7-1.8-1.1-2.8c-0.4-0.9-0.7-1.9-1.1-2.8c0,0,0,0,0-0.1c-0.2-0.6-0.5-1.3-0.7-2
			c0,0,0-0.1-0.1-0.1c-0.6-1.8-1.2-3.6-1.7-5.4c-2.6-8.6-4.5-17.4-5.6-26.5c-0.8-6.5-1.2-13.1-1.2-19.7c0-12.5,1.4-24.6,4.1-36.3
			c0.1-0.4,0.1-0.3,0.1-0.6c0.8-2.4,1.2-5.1,1.2-7.9c0-6.7-3.3-12.7-8.4-16.3c-3.9-2.8-7.1-6.5-8.7-11
			c-8.7-24.4-13.8-50.6-14.6-77.7c-0.1-2.8-0.1-5.7-0.1-8.5v-0.1c0-4.4,2.9-8.3,7.2-9.4c5.1-1.3,10-3.1,14.8-5.3
			c12-5.4,22.7-13.2,31.6-22.7c0.4-0.4,1.1-1.3,1.9-2.1c1.3-1.4,1.4-3.6,0.4-5.2c-5.7-8.9-10-18.2-10-29.7c0-6.9,1.1-13.5,3.3-19.6
			c1.1-3.1,3.4-5.5,6.4-6.8c3.2-1.3,6.6-2.2,10.2-2.4c0.7-0.1,1.5-0.1,2.2-0.1c0.7,0,1.5,0,2.2,0.1c3.6,0.3,7,1.1,10.2,2.4
			c2.8,1.1,5,3.4,6.2,6.2l0,0c0.1,0.2,0.1,0.4,0.2,0.6c2.1,6.2,3.3,12.8,3.3,19.6c0,11.5-4.3,20.8-10,29.7c-1.1,1.6-0.9,3.7,0.4,5.2
			c0.7,0.9,1.4,1.7,1.9,2.1c8.8,9.5,19.5,17.3,31.6,22.7c4.7,2.1,9.7,3.9,14.8,5.3c4.2,1.1,7.2,5,7.2,9.4v0.1c0,2.9,0,5.7-0.1,8.5
			c-0.9,27.2-6,53.3-14.6,77.7c-1.6,4.5-4.8,8.2-8.7,11c-5.1,3.6-8.4,9.5-8.4,16.3c0,2.8,0.5,5.5,1.2,7.9c0.1,0.3,0.1,0.3,0.1,0.6
			c2.7,11.7,4.1,23.8,4.1,36.3c0,6.7-0.4,13.3-1.2,19.7c-1.1,9.1-3,18-5.6,26.5c-0.6,1.8-1.1,3.6-1.7,5.4c0,0.1,0,0.1-0.1,0.1
			c-0.2,0.7-0.4,1.3-0.7,2c0,0,0,0.1,0,0.1c-0.3,0.9-0.7,1.9-1.1,2.8c-0.4,0.9-0.7,1.9-1.1,2.8c-0.1,0.3-0.2,0.6-0.3,0.8
			c-0.7,1.9-0.8,3-1.5,4.5c-2.4,5.2-3.9,10.6-1.5,15.5l0,0.1c0.3,0.8,0.6,1.6,0.9,2.4c0,0,0,0,0,0c0.1,0.2,0.1,0.4,0.2,0.6
			c0.2,0.7,0.4,1.3,0.6,2c0.2,0.7,0.5,1.5,0.7,2.2c0,0.2,0.1,0.4,0.2,0.6c0.2,0.7,0.4,1.4,0.6,2.2c0,0,0,0.1,0,0.1
			c0.2,0.6,0.3,1.3,0.5,1.9c0.1,0.3,0.2,0.7,0.2,1c0.2,1.2,0.5,2.5,0.7,3.7c0,0.2,0.1,0.4,0.1,0.6c0.1,0.7,0.2,1.3,0.3,2v0
			c0.1,0.6,0.2,1.2,0.2,1.8c0.2,1.3,0.3,2.5,0.5,3.8c0.1,0.6,0.1,1.1,0.1,1.7c0.1,1.6,0.2,3.1,0.2,4.7c0,0.9,0.1,1.8,0.1,2.8
			c0,6.3-0.6,12.5-1.8,18.5c-0.9,4.7-2.1,9.2-3.6,13.5c-2.6,3.9-4.6,8.1-5.8,13.4c-1.1,4.6-1.6,10.1-1.5,17
			c0.1,10.1,2.5,19.6,6.8,28h37.7C335,467,344.6,476.6,344.6,488.4z"/>
		<g id="reflectionBody_00000101072512776889680290000010091758333519992468_">
			<path class="st1" d="M210.8,145.4c1.6,10.9,4.9,21.5,11.1,30.6c1.5,2.2,3.3,4.1,5.2,5.8c3.9,3.4,7.5,6.7,11.9,9.6
				c2.2,1.5,4.6,2.9,7.2,4.4c0,0-0.1,0.8-0.1,0.8c-8.9,1.7-18.9-2.4-24.5-9.7c-5.4-7.2-8.9-15.6-10.5-24.3c-1-5.7-1.4-11.4-1-17.1
				L210.8,145.4L210.8,145.4z"/>
		</g>
		<g id="reflectionFace_00000069375524918696453470000012850218064193173420_">
			<path class="st1" d="M245.2,33.7c1.2,8.9,5.1,13.9,12.8,18.2c0,0,0,0.3,0,0.3c-7.2,1.3-11.6-6.1-12.7-12.3
				c-0.3-2.1-0.5-4.1-0.4-6.2C244.9,33.7,245.2,33.7,245.2,33.7L245.2,33.7z"/>
		</g>
		<g id="reflectionLeg_00000062165371621900594280000002234392929487812776_">
			<path class="st1" d="M237.3,382.7c0.9,6,2.8,12.2,6.8,16.8c1.3,1.4,2.8,2.6,4.2,3.9c1.9,1.7,4.1,3,6.7,4.5c0,0-0.1,0.4-0.1,0.4
				c-10.2,1.7-15.9-8.4-17.5-17c-0.5-2.9-0.7-5.7-0.5-8.6L237.3,382.7L237.3,382.7z"/>
		</g>
	</g>
</g>
<g id="logoText">
</g>
</svg>
