<?xml version="1.0" encoding="utf-8"?>
<!-- Generator: Adobe Illustrator 26.0.3, SVG Export Plug-In . SVG Version: 6.00 Build 0)  -->
<svg version="1.1" id="kinoLogo" xmlns="http://www.w3.org/2000/svg" xmlns:xlink="http://www.w3.org/1999/xlink" x="0px" y="0px"
	 viewBox="0 0 512 512" style="enable-background:new 0 0 512 512;" xml:space="preserve">
<style type="text/css">
	.st0{fill:#DFCA4E;}
	.st1{fill:#EFD978;}
	.st2{fill:#FFFFFF;}
	.st3{fill:#EA2C0B;}
	.st4{fill:#BA1C0F;}
	.st5{fill:none;}
</style>
<g id="oscarFigure">
	<g>
		<path id="oscarFigure_00000095307383802464702320000011191247672662643860_" class="st0" d="M-293.1,366.7v7.8
			c0,3-2.5,5.5-5.5,5.5h-85.8c-3,0-5.5-2.5-5.5-5.5v-7.8c0-6.6,5.4-12.1,12.1-12.1h21.2c2.5-4.7,3.8-10.1,3.9-15.8
			c0.1-3.9-0.2-7-0.9-9.6c-0.7-3-1.8-5.4-3.3-7.6c-0.8-2.5-1.5-5-2-7.6c-0.7-3.4-1-6.9-1-10.4c0-0.5,0-1,0-1.6
			c0-0.9,0.1-1.8,0.1-2.7c0-0.3,0-0.6,0.1-1c0.1-0.7,0.1-1.4,0.3-2.2c0-0.3,0.1-0.7,0.1-1v0c0.1-0.4,0.1-0.8,0.2-1.1
			c0-0.1,0-0.2,0.1-0.3c0.1-0.7,0.3-1.4,0.4-2.1c0-0.2,0.1-0.4,0.1-0.6c0.1-0.4,0.2-0.7,0.3-1.1c0,0,0-0.1,0-0.1
			c0.1-0.4,0.2-0.8,0.3-1.2c0-0.1,0.1-0.2,0.1-0.3c0.1-0.4,0.2-0.8,0.4-1.3c0.1-0.4,0.2-0.7,0.4-1.1c0-0.1,0.1-0.3,0.1-0.4
			c0,0,0,0,0,0c0.2-0.5,0.3-0.9,0.5-1.4l0,0c1.1-2.3,1.1-4.9,0.1-7.2c-0.6-1.3-1.2-2.7-1.8-4c0,0,0,0,0,0c-0.1-0.2-0.1-0.3-0.2-0.5
			c-0.2-0.5-0.4-1-0.6-1.6c-0.2-0.5-0.4-1.1-0.6-1.6c0,0,0,0,0,0c-0.1-0.4-0.3-0.7-0.4-1.1c0,0,0-0.1,0-0.1c-0.3-1-0.7-2-1-3
			c-1.5-4.8-2.5-9.8-3.2-15c-0.5-3.6-0.7-7.4-0.7-11.1c0-7,0.8-13.9,2.3-20.4c0-0.2,0-0.2,0.1-0.4c0.4-1.4,0.7-2.9,0.7-4.5
			c0-3.8-1.9-7.1-4.8-9.2c-2.2-1.6-4-3.6-4.9-6.2c-4.9-13.8-7.7-28.5-8.2-43.8c-0.1-1.6-0.1-3.2-0.1-4.8v0c0-2.5,1.6-4.7,4-5.3
			c2.9-0.8,5.7-1.8,8.3-3c6.8-3,12.8-7.4,17.8-12.8c0.2-0.3,0.6-0.7,1.1-1.2c0.7-0.8,0.8-2,0.2-2.9c-3.2-5-5.6-10.3-5.6-16.7
			c0-3.9,0.6-7.6,1.8-11.1c0.6-1.7,1.9-3.1,3.6-3.8c1.8-0.7,3.7-1.2,5.7-1.4c0.4,0,0.8-0.1,1.3-0.1c0.4,0,0.8,0,1.3,0.1
			c2,0.2,3.9,0.6,5.7,1.4c1.7,0.7,3,2.1,3.6,3.8c1.2,3.5,1.8,7.2,1.8,11.1c0,6.5-2.4,11.7-5.6,16.7c-0.6,0.9-0.5,2.1,0.2,2.9
			c0.4,0.5,0.8,0.9,1.1,1.2c5,5.4,11,9.7,17.8,12.8c2.7,1.2,5.4,2.2,8.3,3c2.4,0.6,4,2.8,4,5.3v0c0,1.6,0,3.2-0.1,4.8
			c-0.5,15.3-3.4,30-8.2,43.8c-0.9,2.6-2.7,4.6-4.9,6.2c-2.9,2-4.8,5.4-4.8,9.2c0,1.6,0.3,3.1,0.7,4.5c0,0.2,0,0.2,0.1,0.4
			c1.5,6.6,2.3,13.4,2.3,20.4c0,3.8-0.2,7.5-0.7,11.1c-0.6,5.1-1.7,10.1-3.2,15c-0.3,1-0.6,2-1,3c0,0,0,0.1,0,0.1
			c-0.1,0.4-0.3,0.7-0.4,1.1c0,0,0,0,0,0c-0.2,0.5-0.4,1.1-0.6,1.6c-0.2,0.5-0.4,1.1-0.6,1.6c-0.1,0.2-0.1,0.3-0.2,0.5v0
			c-0.4,1.1-0.5,1.7-0.9,2.5c-1.4,2.9-2.2,6-0.8,8.8l0,0c0.2,0.5,0.3,0.9,0.5,1.4c0,0,0,0,0,0c0,0.1,0.1,0.2,0.1,0.4
			c0.1,0.4,0.2,0.7,0.4,1.1c0.1,0.4,0.3,0.8,0.4,1.3c0,0.1,0.1,0.2,0.1,0.3c0.1,0.4,0.2,0.8,0.3,1.2c0,0,0,0.1,0,0.1
			c0.1,0.4,0.2,0.7,0.3,1.1c0,0.2,0.1,0.4,0.1,0.6c0.1,0.7,0.3,1.4,0.4,2.1c0,0.1,0,0.2,0.1,0.3c0.1,0.4,0.1,0.7,0.2,1.1v0
			c0.1,0.3,0.1,0.7,0.1,1c0.1,0.7,0.2,1.4,0.3,2.2c0,0.3,0.1,0.6,0.1,1c0.1,0.9,0.1,1.8,0.1,2.7c0,0.5,0,1,0,1.6
			c0,3.6-0.3,7.1-1,10.4c-0.5,2.6-1.2,5.2-2,7.6c-1.5,2.2-2.6,4.5-3.3,7.6c-0.6,2.6-0.9,5.7-0.9,9.6c0.1,5.7,1.4,11.1,3.9,15.8h21.2
			C-298.5,354.7-293.1,360.1-293.1,366.7z"/>
		<g id="reflectionBody">
			<path class="st1" d="M-368.5,173.5c0.5,3.1,1.2,6.2,2.2,9.1c0.5,1.5,1.1,2.9,1.8,4.2c0.3,0.7,0.7,1.4,1.1,2
				c0.4,0.6,0.8,1.3,1.2,1.9c0.4,0.6,0.9,1.2,1.4,1.7c0.5,0.5,1,1.1,1.5,1.5c0.5,0.5,1,1,1.6,1.4c0.3,0.2,0.5,0.5,0.8,0.7
				c0.2,0.3,0.5,0.5,0.8,0.7c0.6,0.4,1.1,0.9,1.7,1.4c0.6,0.4,1.2,0.8,1.8,1.3c1.3,0.8,2.6,1.6,4,2.5l-0.1,0.4
				c-1.7,0.3-3.4,0.3-5.1-0.1c-0.8-0.2-1.7-0.4-2.5-0.7c-0.8-0.3-1.6-0.8-2.3-1.2c-0.8-0.4-1.4-1-2.1-1.6c-0.7-0.5-1.2-1.2-1.8-1.9
				c-0.6-0.7-1-1.4-1.5-2.1c-0.5-0.7-0.9-1.5-1.3-2.2c-0.4-0.7-0.8-1.5-1.1-2.3c-0.4-0.8-0.6-1.5-0.9-2.3c-0.5-1.6-0.9-3.2-1.2-4.8
				c-0.3-1.6-0.5-3.2-0.6-4.8c-0.1-1.6-0.1-3.2,0-4.8L-368.5,173.5z"/>
		</g>
		<g id="reflectionFace">
			<path class="st1" d="M-349.1,110.5c0.3,2.2,1,4.5,2.3,6.2c0.6,0.9,1.5,1.5,2.2,2.2c0.8,0.7,1.7,1.2,2.7,1.8l0,0.2
				c-1.2,0.2-2.5-0.1-3.6-0.7c-1.1-0.6-1.8-1.8-2.4-2.8c-0.6-1.1-0.9-2.2-1.2-3.4c-0.2-1.2-0.3-2.3-0.2-3.5L-349.1,110.5z"/>
		</g>
		<g id="reflectionLeg">
			<path class="st1" d="M-353.5,307.2c0.2,1.6,0.6,3.1,1.1,4.6c0.5,1.5,1.2,2.9,2,4.1c0.9,1.2,2,2.1,3.1,3c1.1,1,2.3,1.7,3.8,2.6
				l0,0.2c-1.7,0.3-3.5-0.1-5-1c-1.5-0.9-2.5-2.4-3.3-3.9c-0.8-1.5-1.3-3.1-1.6-4.7c-0.3-1.6-0.4-3.2-0.3-4.8L-353.5,307.2z"/>
		</g>
	</g>
	<g>
		<path class="st0" d="M876.6,488.4v13.8c0,5.4-4.4,9.8-9.8,9.8H714.5c-5.4,0-9.8-4.4-9.8-9.8v-13.8c0-11.8,9.6-21.4,21.4-21.4h37.7
			c4.4-8.4,6.7-17.9,6.8-28c0.1-6.9-0.4-12.4-1.5-17c-1.2-5.4-3.2-9.6-5.8-13.4c-1.5-4.4-2.7-8.9-3.6-13.5c-1.2-6-1.8-12.2-1.8-18.5
			c0-0.9,0-1.8,0.1-2.8c0-1.6,0.1-3.2,0.2-4.7c0-0.6,0.1-1.1,0.1-1.7c0.1-1.3,0.3-2.6,0.5-3.8c0.1-0.6,0.2-1.2,0.2-1.8v0
			c0.1-0.7,0.2-1.3,0.3-2c0-0.2,0.1-0.4,0.1-0.6c0.2-1.3,0.5-2.5,0.7-3.7c0.1-0.4,0.2-0.7,0.2-1c0.2-0.7,0.3-1.3,0.5-1.9
			c0-0.1,0-0.1,0-0.1c0.2-0.7,0.4-1.5,0.6-2.2c0.1-0.2,0.1-0.4,0.2-0.6c0.2-0.7,0.4-1.5,0.7-2.2c0.2-0.7,0.4-1.3,0.6-2
			c0.1-0.2,0.1-0.4,0.2-0.6c0,0,0,0,0,0c0.3-0.8,0.6-1.6,0.9-2.4l0-0.1c2-4,2-8.8,0.1-12.9c-1.1-2.3-2.2-4.7-3.1-7.2
			c-0.1-0.3-0.2-0.6-0.3-0.8c-0.4-0.9-0.7-1.8-1.1-2.8c-0.4-0.9-0.7-1.9-1.1-2.8c0,0,0,0,0-0.1c-0.2-0.6-0.5-1.3-0.7-2
			c0,0,0-0.1-0.1-0.1c-0.6-1.8-1.2-3.6-1.7-5.4c-2.6-8.6-4.5-17.4-5.6-26.5c-0.8-6.5-1.2-13.1-1.2-19.7c0-12.5,1.4-24.6,4.1-36.3
			c0.1-0.4,0.1-0.3,0.1-0.6c0.8-2.4,1.2-5.1,1.2-7.9c0-6.7-3.3-12.7-8.4-16.3c-3.9-2.8-7.1-6.5-8.7-11
			c-8.7-24.4-13.8-50.6-14.6-77.7c-0.1-2.8-0.1-5.7-0.1-8.5v-0.1c0-4.4,2.9-8.3,7.2-9.4c5.1-1.3,10-3.1,14.8-5.3
			c12-5.4,22.7-13.2,31.6-22.7c0.4-0.4,1.1-1.3,1.9-2.1c1.3-1.4,1.4-3.6,0.4-5.2c-5.7-8.9-10-18.2-10-29.7c0-6.9,1.1-13.5,3.3-19.6
			c1.1-3.1,3.4-5.5,6.4-6.8c3.2-1.3,6.6-2.2,10.2-2.4c0.7-0.1,1.5-0.1,2.2-0.1c0.7,0,1.5,0,2.2,0.1c3.6,0.3,7,1.1,10.2,2.4
			c2.8,1.1,5,3.4,6.2,6.2l0,0c0.1,0.2,0.1,0.4,0.2,0.6c2.1,6.2,3.3,12.8,3.3,19.6c0,11.5-4.3,20.8-10,29.7c-1.1,1.6-0.9,3.7,0.4,5.2
			c0.7,0.9,1.4,1.7,1.9,2.1c8.8,9.5,19.5,17.3,31.6,22.7c4.7,2.1,9.7,3.9,14.8,5.3c4.2,1.1,7.2,5,7.2,9.4v0.1c0,2.9,0,5.7-0.1,8.5
			c-0.9,27.2-6,53.3-14.6,77.7c-1.6,4.5-4.8,8.2-8.7,11c-5.1,3.6-8.4,9.5-8.4,16.3c0,2.8,0.5,5.5,1.2,7.9c0.1,0.3,0.1,0.3,0.1,0.6
			c2.7,11.7,4.1,23.8,4.1,36.3c0,6.7-0.4,13.3-1.2,19.7c-1.1,9.1-3,18-5.6,26.5c-0.6,1.8-1.1,3.6-1.7,5.4c0,0.1,0,0.1-0.1,0.1
			c-0.2,0.7-0.4,1.3-0.7,2c0,0,0,0.1,0,0.1c-0.3,0.9-0.7,1.9-1.1,2.8c-0.4,0.9-0.7,1.9-1.1,2.8c-0.1,0.3-0.2,0.6-0.3,0.8
			c-0.7,1.9-0.8,3-1.5,4.5c-2.4,5.2-3.9,10.6-1.5,15.5l0,0.1c0.3,0.8,0.6,1.6,0.9,2.4c0,0,0,0,0,0c0.1,0.2,0.1,0.4,0.2,0.6
			c0.2,0.7,0.4,1.3,0.6,2c0.2,0.7,0.5,1.5,0.7,2.2c0,0.2,0.1,0.4,0.2,0.6c0.2,0.7,0.4,1.4,0.6,2.2c0,0,0,0.1,0,0.1
			c0.2,0.6,0.3,1.3,0.5,1.9c0.1,0.3,0.2,0.7,0.2,1c0.2,1.2,0.5,2.5,0.7,3.7c0,0.2,0.1,0.4,0.1,0.6c0.1,0.7,0.2,1.3,0.3,2v0
			c0.1,0.6,0.2,1.2,0.2,1.8c0.2,1.3,0.3,2.5,0.5,3.8c0.1,0.6,0.1,1.1,0.1,1.7c0.1,1.6,0.2,3.1,0.2,4.7c0,0.9,0.1,1.8,0.1,2.8
			c0,6.3-0.6,12.5-1.8,18.5c-0.9,4.7-2.1,9.2-3.6,13.5c-2.6,3.9-4.6,8.1-5.8,13.4c-1.1,4.6-1.6,10.1-1.5,17
			c0.1,10.1,2.5,19.6,6.8,28h37.7C867,467,876.6,476.6,876.6,488.4z"/>
		<g id="reflectionBody_00000101072512776889680290000010091758333519992468_">
			<path class="st1" d="M742.8,145.4c1.6,10.9,4.9,21.5,11.1,30.6c1.5,2.2,3.3,4.1,5.2,5.8c3.9,3.4,7.5,6.7,11.9,9.6
				c2.2,1.5,4.6,2.9,7.2,4.4c0,0-0.1,0.8-0.1,0.8c-8.9,1.7-18.9-2.4-24.5-9.7c-5.4-7.2-8.9-15.6-10.5-24.3c-1-5.7-1.4-11.4-1-17.1
				L742.8,145.4L742.8,145.4z"/>
		</g>
		<g id="reflectionFace_00000069375524918696453470000012850218064193173420_">
			<path class="st1" d="M777.2,33.7c1.2,8.9,5.1,13.9,12.8,18.2c0,0,0,0.3,0,0.3c-7.2,1.3-11.6-6.1-12.7-12.3
				c-0.3-2.1-0.5-4.1-0.4-6.2C776.9,33.7,777.2,33.7,777.2,33.7L777.2,33.7z"/>
		</g>
		<g id="reflectionLeg_00000062165371621900594280000002234392929487812776_">
			<path class="st1" d="M769.3,382.7c0.9,6,2.8,12.2,6.8,16.8c1.3,1.4,2.8,2.6,4.2,3.9c1.9,1.7,4.1,3,6.7,4.5c0,0-0.1,0.4-0.1,0.4
				c-10.2,1.7-15.9-8.4-17.5-17c-0.5-2.9-0.7-5.7-0.5-8.6L769.3,382.7L769.3,382.7z"/>
		</g>
	</g>
</g>
<g id="logoText">
	<path class="st2" d="M-402.8,371.8c3.2,4.6,1.1,8.3-4.4,8.3h-34.5c-3.7,0-6.2-1.4-8.3-4.6l-28.5-43.7c-0.9-1.4-2.3-1.4-3.2,0
		l-9.4,12.9c-0.7,0.9-0.9,1.8-0.9,3v25.5c0,4.4-2.3,6.9-6.9,6.9H-532V226c0-4.6,2.5-6.9,6.9-6.9h26.2c3.8,0,6.9,3.1,6.9,6.9v46.2
		c0,2.3,1.6,2.8,2.8,0.9l36.1-49.6c2.1-3,4.6-4.4,8.3-4.4h34c5.7,0,7.6,3.7,4.4,8.5l-46.4,63.9c-0.7,1.1-0.9,2.1,0,3.2L-402.8,371.8
		z"/>
	<path class="st2" d="M-240.3,219.6c3.9,0,6.4,1.6,8,5.3l31.3,76.5c0.9,2.1,2.8,1.6,2.8-0.7v-74.2c0-4.6,2.5-6.9,6.9-6.9h25.7
		c4.6,0,6.9,2.3,6.9,6.9v147.1c0,4.4-2.3,6.9-6.9,6.9h-33.8c-3.9,0-6.4-1.6-8-5.3l-31.3-76.5c-0.9-2.1-2.8-1.6-2.8,0.7v74.2
		c0,4.4-2.3,6.9-6.9,6.9h-25.7c-4.4,0-6.9-2.5-6.9-6.9V226.5c0-4.6,2.5-6.9,6.9-6.9H-240.3z"/>
	<path class="st2" d="M-20,328.6c0,15.2-3.2,55.8-57.7,55.8c-54.5,0-57.7-40.7-57.7-55.8v-57.5c0-15.2,3.2-55.8,57.7-55.8
		c54.5,0,57.7,40.7,57.7,55.8V328.6z M-59.5,283.3c0-17.7-1.1-28.5-18.2-28.5c-17,0-18.2,10.8-18.2,28.5v33.1
		c0,17.7,1.1,28.5,18.2,28.5c17,0,18.2-10.8,18.2-28.5V283.3z"/>
	<path class="st3" d="M-40.1,380H-532v20.9c0,10.8,8.7,19.5,19.5,19.5h472.4c11.1,0,20.1-9,20.1-20.1v-0.3C-20,389-29,380-40.1,380z
		"/>
	<g>
		<g>
			<path class="st4" d="M512,305.2v122.6c0,46.3-37.9,84.2-84.2,84.2H253.6l-56.8-56.8h118.5c4.2,0,7.6-3.4,7.6-7.6v-10.8
				c0-9.2-7.5-16.7-16.7-16.7h-29.3c-3.4-6.5-5.2-13.9-5.3-21.8c-0.1-5.3,0.3-9.6,1.2-13.2c1-4.2,2.5-7.4,4.5-10.4
				c1.2-3.4,2.1-6.9,2.8-10.5c0.9-4.7,1.4-9.5,1.4-14.4c0-0.7,0-1.4,0-2.2c0-1.2-0.1-2.5-0.2-3.7c0-0.4-0.1-0.9-0.1-1.3
				c-0.1-1-0.2-2-0.4-3c-0.1-0.5-0.1-1-0.2-1.4v0c-0.1-0.5-0.2-1-0.3-1.6c0-0.1,0-0.3-0.1-0.4c-0.2-1-0.4-2-0.6-2.9
				c-0.1-0.3-0.1-0.5-0.2-0.8c-0.1-0.5-0.2-1-0.4-1.5c0,0,0-0.1,0-0.1c-0.1-0.6-0.3-1.1-0.4-1.7c0-0.2-0.1-0.3-0.1-0.5
				c-0.2-0.6-0.3-1.2-0.5-1.7c-0.2-0.5-0.3-1-0.5-1.5c-0.1-0.2-0.1-0.3-0.2-0.5c0,0,0,0,0,0c-0.2-0.6-0.5-1.3-0.7-1.9l0-0.1
				c-1.9-3.9-0.7-8.1,1.1-12.1c0.5-1.2,0.7-2,1.2-3.5c0.1-0.2,0.2-0.4,0.3-0.6c0.3-0.7,0.6-1.4,0.8-2.2c0.3-0.7,0.6-1.5,0.8-2.2
				c0,0,0,0,0-0.1c0.2-0.5,0.4-1,0.5-1.5c0,0,0-0.1,0-0.1c0.5-1.4,0.9-2.8,1.4-4.2c2-6.7,3.5-13.6,4.4-20.7c0.6-5,1-10.2,1-15.4
				c0-9.7-1.1-19.2-3.2-28.2c0-0.3,0-0.2-0.1-0.5c-0.6-1.9-1-4-1-6.2c0-5.2,2.6-9.8,6.6-12.6c3.1-2.2,5.5-5,6.8-8.6
				c6.7-19,10.7-39.3,11.4-60.5c0.1-2.2,0.1-4.4,0.1-6.6v-0.1c0-3.4-2.3-6.4-5.6-7.3c-4-1-7.8-2.4-11.5-4.1
				c-9.3-4.2-17.7-10.2-24.6-17.6c-0.3-0.3-0.9-1-1.4-1.7c-1-1.1-1.1-2.8-0.3-4c4.4-6.9,7.8-14.2,7.8-23.1c0-5.3-0.9-10.5-2.5-15.3
				c-0.1-0.1-0.1-0.3-0.2-0.4L512,305.2z"/>
		</g>
		<g>
			<path class="st3" d="M512,305.2L270.4,63.6c0.1,0.1,0.1,0.3,0.2,0.4c1.7,4.8,2.5,9.9,2.5,15.3c0,8.9-3.3,16.2-7.8,23.1
				c-0.8,1.3-0.7,2.9,0.3,4c0.6,0.7,1.1,1.3,1.4,1.7c6.9,7.4,15.2,13.4,24.6,17.6c3.7,1.7,7.5,3,11.5,4.1c3.3,0.9,5.6,3.9,5.6,7.3
				v0.1c0,2.2,0,4.4-0.1,6.6c-0.7,21.1-4.6,41.5-11.4,60.5c-1.2,3.5-3.7,6.4-6.8,8.6c-4,2.8-6.6,7.4-6.6,12.6c0,2.2,0.4,4.3,1,6.2
				c0,0.3,0,0.2,0.1,0.5c2.1,9.1,3.2,18.5,3.2,28.2c0,5.2-0.3,10.3-1,15.4c-0.9,7.1-2.3,14-4.4,20.7c-0.4,1.4-0.9,2.8-1.4,4.2
				c0,0,0,0.1,0,0.1c-0.2,0.5-0.3,1-0.5,1.5c0,0,0,0,0,0.1c-0.3,0.7-0.5,1.5-0.8,2.2c-0.3,0.7-0.5,1.5-0.8,2.2
				c-0.1,0.2-0.2,0.4-0.3,0.6c-0.5,1.5-0.6,2.3-1.2,3.5c-1.9,4-3.1,8.2-1.1,12.1l0,0.1c0.2,0.6,0.5,1.3,0.7,1.9c0,0,0,0,0,0
				c0.1,0.2,0.1,0.3,0.2,0.5c0.2,0.5,0.3,1,0.5,1.5c0.2,0.6,0.4,1.2,0.5,1.7c0,0.2,0.1,0.3,0.1,0.5c0.1,0.5,0.3,1.1,0.4,1.7
				c0,0,0,0.1,0,0.1c0.1,0.5,0.3,1,0.4,1.5c0.1,0.3,0.1,0.5,0.2,0.8c0.2,1,0.4,1.9,0.6,2.9c0,0.1,0.1,0.3,0.1,0.4
				c0.1,0.5,0.2,1,0.3,1.6v0c0.1,0.5,0.1,1,0.2,1.4c0.1,1,0.3,2,0.4,3c0,0.4,0.1,0.9,0.1,1.3c0.1,1.2,0.2,2.4,0.2,3.7
				c0,0.7,0,1.4,0,2.2c0,4.9-0.5,9.8-1.4,14.4c-0.7,3.6-1.6,7.1-2.8,10.5c-2,3-3.6,6.3-4.5,10.4c-0.9,3.6-1.3,7.9-1.2,13.2
				c0.1,7.9,1.9,15.3,5.3,21.8h29.3c9.2,0,16.7,7.5,16.7,16.7v10.8c0,4.2-3.4,7.6-7.6,7.6H196.7l56.8,56.8H84.2
				C37.9,512,0,474.1,0,427.8V84.2C0,37.9,37.9,0,84.2,0h343.6C474.1,0,512,37.9,512,84.2V305.2z"/>
		</g>
		<g>
			<path class="st0" d="M322.9,436.8v10.8c0,4.2-3.4,7.6-7.6,7.6H196.7c-4.2,0-7.6-3.4-7.6-7.6v-10.8c0-9.2,7.5-16.7,16.7-16.7h29.3
				c3.4-6.5,5.2-13.9,5.3-21.8c0.1-5.3-0.3-9.6-1.2-13.2c-1-4.2-2.5-7.4-4.5-10.4c-1.2-3.4-2.1-6.9-2.8-10.5
				c-0.9-4.7-1.4-9.5-1.4-14.4c0-0.7,0-1.4,0-2.2c0-1.2,0.1-2.5,0.2-3.7c0-0.4,0.1-0.9,0.1-1.3c0.1-1,0.2-2,0.4-3
				c0.1-0.5,0.1-1,0.2-1.4v0c0.1-0.5,0.2-1,0.3-1.6c0-0.1,0-0.3,0.1-0.4c0.2-1,0.4-2,0.6-2.9c0.1-0.3,0.1-0.5,0.2-0.8
				c0.1-0.5,0.2-1,0.4-1.5c0,0,0-0.1,0-0.1c0.1-0.6,0.3-1.1,0.4-1.7c0-0.2,0.1-0.3,0.1-0.5c0.2-0.6,0.3-1.2,0.5-1.7
				c0.2-0.5,0.3-1,0.5-1.5c0.1-0.2,0.1-0.3,0.2-0.5c0,0,0,0,0,0c0.2-0.6,0.5-1.3,0.7-1.9l0-0.1c1.6-3.1,1.6-6.8,0.1-10
				c-0.9-1.8-1.7-3.7-2.4-5.6c-0.1-0.2-0.2-0.4-0.3-0.6c-0.3-0.7-0.6-1.4-0.8-2.2c-0.3-0.7-0.6-1.5-0.8-2.2c0,0,0,0,0-0.1
				c-0.2-0.5-0.4-1-0.5-1.5c0,0,0-0.1,0-0.1c-0.5-1.4-0.9-2.8-1.4-4.2c-2-6.7-3.5-13.6-4.4-20.7c-0.6-5-1-10.2-1-15.4
				c0-9.7,1.1-19.2,3.2-28.2c0-0.3,0-0.2,0.1-0.5c0.6-1.9,1-4,1-6.2c0-5.2-2.6-9.8-6.6-12.6c-3.1-2.2-5.5-5-6.8-8.6
				c-6.7-19-10.7-39.3-11.4-60.5c-0.1-2.2-0.1-4.4-0.1-6.6v-0.1c0-3.4,2.3-6.4,5.6-7.3c4-1,7.8-2.4,11.5-4.1
				c9.3-4.2,17.7-10.2,24.6-17.6c0.3-0.3,0.9-1,1.4-1.7c1-1.1,1.1-2.8,0.3-4c-4.4-6.9-7.8-14.2-7.8-23.1c0-5.3,0.9-10.5,2.5-15.3
				c0.8-2.4,2.6-4.3,5-5.3c2.5-1,5.1-1.7,7.9-1.9c0.6-0.1,1.1-0.1,1.7-0.1c0.6,0,1.2,0,1.7,0.1c2.8,0.2,5.4,0.9,7.9,1.9
				c2.2,0.9,3.9,2.6,4.8,4.8l0,0c0.1,0.1,0.1,0.3,0.2,0.4c1.7,4.8,2.5,9.9,2.5,15.3c0,8.9-3.3,16.2-7.8,23.1c-0.8,1.3-0.7,2.9,0.3,4
				c0.6,0.7,1.1,1.3,1.4,1.7c6.9,7.4,15.2,13.4,24.6,17.6c3.7,1.7,7.5,3,11.5,4.1c3.3,0.9,5.6,3.9,5.6,7.3v0.1c0,2.2,0,4.4-0.1,6.6
				c-0.7,21.1-4.6,41.5-11.4,60.5c-1.2,3.5-3.7,6.4-6.8,8.6c-4,2.8-6.6,7.4-6.6,12.6c0,2.2,0.4,4.3,1,6.2c0,0.3,0,0.2,0.1,0.5
				c2.1,9.1,3.2,18.5,3.2,28.2c0,5.2-0.3,10.3-1,15.4c-0.9,7.1-2.3,14-4.4,20.7c-0.4,1.4-0.9,2.8-1.4,4.2c0,0,0,0.1,0,0.1
				c-0.2,0.5-0.3,1-0.5,1.5c0,0,0,0,0,0.1c-0.3,0.7-0.5,1.5-0.8,2.2c-0.3,0.7-0.5,1.5-0.8,2.2c-0.1,0.2-0.2,0.4-0.3,0.6
				c-0.5,1.5-0.6,2.3-1.2,3.5c-1.9,4-3.1,8.2-1.1,12.1l0,0.1c0.2,0.6,0.5,1.3,0.7,1.9c0,0,0,0,0,0c0.1,0.2,0.1,0.3,0.2,0.5
				c0.2,0.5,0.3,1,0.5,1.5c0.2,0.6,0.4,1.2,0.5,1.7c0,0.2,0.1,0.3,0.1,0.5c0.1,0.5,0.3,1.1,0.4,1.7c0,0,0,0.1,0,0.1
				c0.1,0.5,0.3,1,0.4,1.5c0.1,0.3,0.1,0.5,0.2,0.8c0.2,1,0.4,1.9,0.6,2.9c0,0.1,0.1,0.3,0.1,0.4c0.1,0.5,0.2,1,0.3,1.6v0
				c0.1,0.5,0.1,1,0.2,1.4c0.1,1,0.3,2,0.4,3c0,0.4,0.1,0.9,0.1,1.3c0.1,1.2,0.2,2.4,0.2,3.7c0,0.7,0,1.4,0,2.2
				c0,4.9-0.5,9.8-1.4,14.4c-0.7,3.6-1.6,7.1-2.8,10.5c-2,3-3.6,6.3-4.5,10.4c-0.9,3.6-1.3,7.9-1.2,13.2c0.1,7.9,1.9,15.3,5.3,21.8
				h29.3C315.4,420.2,322.9,427.7,322.9,436.8z"/>
			<g id="reflectionBody_00000091722233238552214870000013994043089762548143_">
				<path class="st1" d="M218.7,170c1.3,8.9,4.1,17.8,9.6,25c2.2,2.7,4.9,4.9,7.6,7.1c3,2.6,6.4,4.7,10.4,7.1c0,0-0.1,0.6-0.1,0.6
					c-5.9,1.1-12.1-1-16.6-4.9c-5.9-5.6-9.1-13.7-10.6-21.5c-0.7-4.4-1.1-8.9-0.8-13.3C218.1,170,218.7,170,218.7,170L218.7,170z"/>
			</g>
			<g id="reflectionFace_00000080183310309598215740000007446060690807873980_">
				<path class="st1" d="M245.5,83c0.9,6.8,4,10.9,10,14.2c0,0,0,0.2,0,0.2c-5.6,1-9-4.8-9.8-9.6c-0.3-1.6-0.4-3.2-0.3-4.8L245.5,83
					L245.5,83z"/>
			</g>
			<g id="reflectionLeg_00000095301176899119410000000007420546583200365717_">
				<path class="st1" d="M239.4,354.5c1.4,9.6,5.4,14.9,13.8,19.6c0,0-0.1,0.3-0.1,0.3c-7.9,1.3-12.5-6.6-13.6-13.3
					c-0.4-2.2-0.6-4.5-0.4-6.7C239.1,354.6,239.4,354.5,239.4,354.5L239.4,354.5z"/>
			</g>
		</g>
		<polyline class="st5" points="270.4,63.6 270.4,63.6 265.6,58.8 		"/>
	</g>
</g>
</svg>
