<?xml version="1.0" encoding="utf-8"?>
<!-- Generator: Adobe Illustrator 26.0.3, SVG Export Plug-In . SVG Version: 6.00 Build 0)  -->
<svg version="1.1" id="Layer_1" xmlns="http://www.w3.org/2000/svg" xmlns:xlink="http://www.w3.org/1999/xlink" x="0px" y="0px"
	 viewBox="0 0 512 397.4" style="enable-background:new 0 0 512 397.4;" xml:space="preserve">
<style type="text/css">
	.st0{fill:#DFCA4E;}
	.st1{fill:#BC2026;}
</style>
<path class="st0" d="M90.2,64c0,9.8,3.7,18.8,9.8,25.6H25.6C11.5,89.6,0,78.1,0,64c0-7,2.9-13.4,7.5-18.1c4.6-4.6,11-7.5,18.1-7.5
	H100C93.9,45.2,90.2,54.2,90.2,64z"/>
<path class="st0" d="M512,64c0,7-2.9,13.4-7.5,18.1c-4.6,4.6-11,7.5-18.1,7.5H157.2c6.1-6.8,9.8-15.8,9.8-25.6s-3.7-18.8-9.8-25.6
	h329.2C500.5,38.4,512,49.9,512,64z"/>
<path class="st0" d="M187.3,38.4C177.4,15.8,154.8,0,128.6,0S79.9,15.8,70,38.4c-3.4,7.8-5.3,16.5-5.3,25.6s1.9,17.8,5.4,25.6
	c9.9,22.6,32.5,38.4,58.6,38.4s48.8-15.8,58.6-38.4c3.5-7.8,5.4-16.5,5.4-25.6C192.6,54.9,190.7,46.2,187.3,38.4z M128.6,102.4
	c-11.3,0-21.6-4.9-28.6-12.8c-6.1-6.8-9.8-15.8-9.8-25.6s3.7-18.8,9.8-25.6c7-7.9,17.2-12.8,28.6-12.8s21.6,4.9,28.6,12.8
	c6.1,6.8,9.8,15.8,9.8,25.6s-3.7,18.8-9.8,25.6C150.2,97.5,140,102.4,128.6,102.4z"/>
<path class="st0" d="M227.4,173.1c-6.1,6.8-9.8,15.8-9.8,25.6c0,9.8,3.7,18.8,9.8,25.6H25.6C11.5,224.3,0,212.8,0,198.7
	c0-7,2.9-13.4,7.5-18.1c4.6-4.6,11-7.5,18.1-7.5H227.4z"/>
<path class="st0" d="M512,198.7c0,7-2.9,13.4-7.5,18.1c-4.6,4.6-11,7.5-18.1,7.5H284.6c6.1-6.8,9.8-15.8,9.8-25.6
	s-3.7-18.8-9.8-25.6h201.8C500.5,173.1,512,184.6,512,198.7z"/>
<path class="st1" d="M314.6,173.1c-9.9-22.6-32.5-38.4-58.6-38.4s-48.8,15.8-58.6,38.4c-3.5,7.8-5.4,16.5-5.4,25.6
	s1.9,17.8,5.4,25.6c9.9,22.6,32.5,38.4,58.6,38.4s48.8-15.8,58.6-38.4c3.5-7.8,5.4-16.5,5.4-25.6S318.1,180.9,314.6,173.1z
	 M256,237.1c-11.4,0-21.6-4.9-28.6-12.8c-6.1-6.8-9.8-15.8-9.8-25.6s3.7-18.8,9.8-25.6c7-7.9,17.2-12.8,28.6-12.8
	c11.4,0,21.6,4.9,28.6,12.8c6.1,6.8,9.8,15.8,9.8,25.6c0,9.8-3.7,18.8-9.8,25.6C277.6,232.1,267.4,237.1,256,237.1z"/>
<path class="st0" d="M354.8,307.8c-6.1,6.8-9.8,15.8-9.8,25.6c0,9.8,3.7,18.8,9.8,25.6H25.6C11.5,359,0,347.5,0,333.4
	c0-7,2.9-13.4,7.5-18.1c4.6-4.6,11-7.5,18.1-7.5H354.8z"/>
<path class="st0" d="M512,333.4c0,7-2.9,13.4-7.5,18.1c-4.6,4.6-11,7.5-18.1,7.5H412c6.1-6.8,9.8-15.8,9.8-25.6
	c0-9.8-3.7-18.8-9.8-25.6h74.4C500.5,307.8,512,319.3,512,333.4z"/>
<path class="st0" d="M442,307.8c-9.9-22.6-32.5-38.4-58.7-38.4s-48.8,15.8-58.7,38.4c-3.4,7.8-5.3,16.5-5.3,25.6s1.9,17.8,5.4,25.6
	c9.9,22.6,32.5,38.4,58.6,38.4s48.8-15.8,58.7-38.4c3.4-7.8,5.3-16.5,5.3-25.6C447.4,324.3,445.5,315.6,442,307.8z M383.4,371.8
	c-11.3,0-21.6-4.9-28.6-12.8c-6.1-6.8-9.8-15.8-9.8-25.6c0-9.8,3.7-18.8,9.8-25.6c7-7.9,17.2-12.8,28.6-12.8
	c11.3,0,21.6,4.9,28.6,12.8c6.1,6.8,9.8,15.8,9.8,25.6c0,9.8-3.7,18.8-9.8,25.6C404.9,366.9,394.7,371.8,383.4,371.8z"/>
</svg>
