<?xml version="1.0" encoding="utf-8"?>
<!-- Generator: Adobe Illustrator 26.0.3, SVG Export Plug-In . SVG Version: 6.00 Build 0)  -->
<svg version="1.1" id="Layer_1" xmlns="http://www.w3.org/2000/svg" xmlns:xlink="http://www.w3.org/1999/xlink" x="0px" y="0px"
	 viewBox="0 0 512 512" style="enable-background:new 0 0 512 512;" xml:space="preserve">
<style type="text/css">
	.st0{fill:#DFCA4E;}
	.st1{fill:#C9AB2D;}
	.st2{fill:#EA2C0B;}
	.st3{fill:none;}
</style>
<circle class="st0" cx="256" cy="256" r="256"/>
<path class="st1" d="M511.2,276.2c-6.1,77.5-46.7,145.3-106.4,188.1c-31.7,22.7-68.7,38.3-108.9,44.6L215,428
	c2.5,2.5,6.2,3.9,10.8,3.9h54.9c9.8,0,14.7-5.4,14.7-14.7v-54.9c0-4.6-1.1-8.1-3.2-10.5l-0.1-0.1c-0.2-0.2-0.4-0.4-0.6-0.6
	c-2.4-2.3-6-3.5-10.8-3.5h-35.4l-28-28c2.4,2,5.9,3,10,3h55.4c8.8,0,13.2-3.9,16.7-12.2c17.6-40.7,74.5-47.5,74.5-128.9
	c0.3-7.9-0.7-36.4-18.6-61.3L511.2,276.2z"/>
<path class="st0" d="M512,256C512,114.6,397.4,0,256,0S0,114.6,0,256s114.6,256,256,256c13.6,0,26.9-1.1,39.9-3.1L215,428
	c2.5,2.5,6.2,3.9,10.8,3.9h54.9c9.8,0,14.7-5.4,14.7-14.7v-54.9c0-4.6-1.1-8.1-3.2-10.5l-0.1-0.1l-0.6-0.6c-2.4-2.3-6-3.5-10.8-3.5
	h-35.4l-28-28c2.4,2,5.9,3,10,3h55.4c8.8,0,13.2-3.9,16.7-12.2c17.6-40.7,74.5-47.5,74.5-128.9c0.3-7.9-0.7-36.4-18.6-61.3l156,156
	C511.7,269.6,512,262.8,512,256z M284.7,196.7c-8.2,40-41.3,43.6-60.2,77.7l-79.2-79.2c1.6,0.9,3.5,1.5,5.6,2l55.9,12.2
	c9.8,2,14.7-2.5,16.2-12.2c3.4-20.1,14.7-32.8,37.7-32.8C279.8,164.4,287.6,182,284.7,196.7z"/>
<g>
	<path class="st2" d="M292.2,351.8l-0.1-0.1l-0.6-0.6c-2.4-2.3-6-3.5-10.8-3.5h-54.9c-9.3,0-14.7,4.9-14.7,14.7v54.9
		c0,4.5,1.3,8.1,3.6,10.6l0.2,0.2c2.5,2.5,6.2,3.9,10.8,3.9h54.9c9.8,0,14.7-5.4,14.7-14.7v-54.9
		C295.5,357.7,294.4,354.2,292.2,351.8z M355.2,120.3c-5.1-7-11.5-13.8-19.7-19.7c-16.7-12.1-40.7-20.5-74.9-20.5
		c-100.9,0-119.6,65.7-122.5,100.9c-0.2,3.3,0.3,6.2,1.5,8.5c1.2,2.4,3.1,4.2,5.6,5.6c1.6,0.9,3.5,1.5,5.6,2l55.9,12.2
		c9.8,2,14.7-2.5,16.2-12.2c3.4-20.1,14.7-32.8,37.7-32.8c19.1,0,27,17.6,24,32.3c-8.2,40-41.3,43.6-60.2,77.7
		c-4.7,8.5-8.5,18.8-10.9,32.1c-0.9,4.9-0.1,8.8,2.1,11.5l0,0c0.5,0.6,1,1.1,1.6,1.6c2.4,2,5.9,3,10,3h55.4
		c8.8,0,13.2-3.9,16.7-12.2c17.6-40.7,74.5-47.5,74.5-128.9C374.1,173.6,373.1,145.1,355.2,120.3z"/>
</g>
<line class="st3" x1="215" y1="428" x2="214.8" y2="427.8"/>
<line class="st3" x1="292.1" y1="351.7" x2="291.5" y2="351.1"/>
<path class="st1" d="M284.7,196.7c-8.2,40-41.3,43.6-60.2,77.7l-79.2-79.2c1.6,0.9,3.5,1.5,5.6,2l55.9,12.2
	c9.8,2,14.7-2.5,16.2-12.2c3.4-20.1,14.7-32.8,37.7-32.8C279.8,164.4,287.6,182,284.7,196.7z"/>
<polyline class="st3" points="139.7,189.6 139.7,189.6 145.3,195.2 "/>
<polyline class="st3" points="217.4,319.6 215.7,318 215.7,318 "/>
<line class="st3" x1="355.2" y1="120.3" x2="335.5" y2="100.6"/>
</svg>
