<svg version="1.1" id="Layer_2_00000124863360035824898480000014017459302375243931_"
	 xmlns="http://www.w3.org/2000/svg" xmlns:xlink="http://www.w3.org/1999/xlink" x="0px" y="0px" viewBox="0 0 36 36"
	 style="enable-background:new 0 0 36 36;" xml:space="preserve" width="36" height="36">
<style type="text/css">
	.st0{fill:#DFCA4E;}
	.st1{fill:#EA2C0B;}
</style>
<path class="st0" d="M18,0C8.1,0,0,8.1,0,18s8.1,18,18,18s18-8.1,18-18S27.9,0,18,0z M27,30.3l-9-6.5l-9,6.5l3.4-10.5l-8.9-6.5h11.1
	L18,2.8l3.4,10.5h11.1l-8.9,6.5L27,30.3z"/>
<polygon class="st1" points="23.5,19.8 27,30.3 18,23.8 9,30.3 12.5,19.8 3.5,13.3 14.6,13.3 18,2.8 21.4,13.3 32.5,13.3 "/>
</svg>
