<?xml version="1.0" encoding="utf-8"?>
<!-- Generator: Adobe Illustrator 26.0.3, SVG Export Plug-In . SVG Version: 6.00 Build 0)  -->
<svg version="1.1" id="kinoLogo" xmlns="http://www.w3.org/2000/svg" xmlns:xlink="http://www.w3.org/1999/xlink" x="0px" y="0px"
	 viewBox="0 0 512 512" style="enable-background:new 0 0 512 512;" xml:space="preserve">
<style type="text/css">
	.st0{fill:#DFCA4E;}
	.st1{fill:#EFD978;}
	.st2{fill:#891820;}
	.st3{fill:#BC2026;}
	.st4{fill:none;}
	.st5{fill:#FFFFFF;}
	.st6{fill:#EA2C0B;}
</style>
<g id="oscarFigure">
	<g>
		<path id="oscarFigure_00000095307383802464702320000011191247672662643860_" class="st0" d="M238.9,366.7v7.8c0,3-2.5,5.5-5.5,5.5
			h-85.8c-3,0-5.5-2.5-5.5-5.5v-7.8c0-6.6,5.4-12.1,12.1-12.1h21.2c2.5-4.7,3.8-10.1,3.9-15.8c0.1-3.9-0.2-7-0.9-9.6
			c-0.7-3-1.8-5.4-3.3-7.6c-0.8-2.5-1.5-5-2-7.6c-0.7-3.4-1-6.9-1-10.4c0-0.5,0-1,0-1.6c0-0.9,0.1-1.8,0.1-2.7c0-0.3,0-0.6,0.1-1
			c0.1-0.7,0.1-1.4,0.3-2.2c0-0.3,0.1-0.7,0.1-1v0c0.1-0.4,0.1-0.8,0.2-1.1c0-0.1,0-0.2,0.1-0.3c0.1-0.7,0.3-1.4,0.4-2.1
			c0-0.2,0.1-0.4,0.1-0.6c0.1-0.4,0.2-0.7,0.3-1.1c0,0,0-0.1,0-0.1c0.1-0.4,0.2-0.8,0.3-1.2c0-0.1,0.1-0.2,0.1-0.3
			c0.1-0.4,0.2-0.8,0.4-1.3c0.1-0.4,0.2-0.7,0.4-1.1c0-0.1,0.1-0.3,0.1-0.4c0,0,0,0,0,0c0.2-0.5,0.3-0.9,0.5-1.4l0,0
			c1.1-2.3,1.1-4.9,0.1-7.2c-0.6-1.3-1.2-2.7-1.8-4c0,0,0,0,0,0c-0.1-0.2-0.1-0.3-0.2-0.5c-0.2-0.5-0.4-1-0.6-1.6
			c-0.2-0.5-0.4-1.1-0.6-1.6c0,0,0,0,0,0c-0.1-0.4-0.3-0.7-0.4-1.1c0,0,0-0.1,0-0.1c-0.3-1-0.7-2-1-3c-1.5-4.8-2.5-9.8-3.2-15
			c-0.5-3.6-0.7-7.4-0.7-11.1c0-7,0.8-13.9,2.3-20.4c0-0.2,0-0.2,0.1-0.4c0.4-1.4,0.7-2.9,0.7-4.5c0-3.8-1.9-7.1-4.8-9.2
			c-2.2-1.6-4-3.6-4.9-6.2c-4.9-13.8-7.7-28.5-8.2-43.8c-0.1-1.6-0.1-3.2-0.1-4.8v0c0-2.5,1.6-4.7,4-5.3c2.9-0.8,5.7-1.8,8.3-3
			c6.8-3,12.8-7.4,17.8-12.8c0.2-0.3,0.6-0.7,1.1-1.2c0.7-0.8,0.8-2,0.2-2.9c-3.2-5-5.6-10.3-5.6-16.7c0-3.9,0.6-7.6,1.8-11.1
			c0.6-1.7,1.9-3.1,3.6-3.8c1.8-0.7,3.7-1.2,5.7-1.4c0.4,0,0.8-0.1,1.3-0.1c0.4,0,0.8,0,1.3,0.1c2,0.2,3.9,0.6,5.7,1.4
			c1.7,0.7,3,2.1,3.6,3.8c1.2,3.5,1.8,7.2,1.8,11.1c0,6.5-2.4,11.7-5.6,16.7c-0.6,0.9-0.5,2.1,0.2,2.9c0.4,0.5,0.8,0.9,1.1,1.2
			c5,5.4,11,9.7,17.8,12.8c2.7,1.2,5.4,2.2,8.3,3c2.4,0.6,4,2.8,4,5.3v0c0,1.6,0,3.2-0.1,4.8c-0.5,15.3-3.4,30-8.2,43.8
			c-0.9,2.6-2.7,4.6-4.9,6.2c-2.9,2-4.8,5.4-4.8,9.2c0,1.6,0.3,3.1,0.7,4.5c0,0.2,0,0.2,0.1,0.4c1.5,6.6,2.3,13.4,2.3,20.4
			c0,3.8-0.2,7.5-0.7,11.1c-0.6,5.1-1.7,10.1-3.2,15c-0.3,1-0.6,2-1,3c0,0,0,0.1,0,0.1c-0.1,0.4-0.3,0.7-0.4,1.1c0,0,0,0,0,0
			c-0.2,0.5-0.4,1.1-0.6,1.6c-0.2,0.5-0.4,1.1-0.6,1.6c-0.1,0.2-0.1,0.3-0.2,0.5v0c-0.4,1.1-0.5,1.7-0.9,2.5c-1.4,2.9-2.2,6-0.8,8.8
			l0,0c0.2,0.5,0.3,0.9,0.5,1.4c0,0,0,0,0,0c0,0.1,0.1,0.2,0.1,0.4c0.1,0.4,0.2,0.7,0.4,1.1c0.1,0.4,0.3,0.8,0.4,1.3
			c0,0.1,0.1,0.2,0.1,0.3c0.1,0.4,0.2,0.8,0.3,1.2c0,0,0,0.1,0,0.1c0.1,0.4,0.2,0.7,0.3,1.1c0,0.2,0.1,0.4,0.1,0.6
			c0.1,0.7,0.3,1.4,0.4,2.1c0,0.1,0,0.2,0.1,0.3c0.1,0.4,0.1,0.7,0.2,1.1v0c0.1,0.3,0.1,0.7,0.1,1c0.1,0.7,0.2,1.4,0.3,2.2
			c0,0.3,0.1,0.6,0.1,1c0.1,0.9,0.1,1.8,0.1,2.7c0,0.5,0,1,0,1.6c0,3.6-0.3,7.1-1,10.4c-0.5,2.6-1.2,5.2-2,7.6
			c-1.5,2.2-2.6,4.5-3.3,7.6c-0.6,2.6-0.9,5.7-0.9,9.6c0.1,5.7,1.4,11.1,3.9,15.8h21.2C233.5,354.7,238.9,360.1,238.9,366.7z"/>
		<g id="reflectionBody">
			<path class="st1" d="M163.5,173.5c0.5,3.1,1.2,6.2,2.2,9.1c0.5,1.5,1.1,2.9,1.8,4.2c0.3,0.7,0.7,1.4,1.1,2
				c0.4,0.6,0.8,1.3,1.2,1.9c0.4,0.6,0.9,1.2,1.4,1.7c0.5,0.5,1,1.1,1.5,1.5c0.5,0.5,1,1,1.6,1.4c0.3,0.2,0.5,0.5,0.8,0.7
				c0.2,0.3,0.5,0.5,0.8,0.7c0.6,0.4,1.1,0.9,1.7,1.4c0.6,0.4,1.2,0.8,1.8,1.3c1.3,0.8,2.6,1.6,4,2.5l-0.1,0.4
				c-1.7,0.3-3.4,0.3-5.1-0.1c-0.8-0.2-1.7-0.4-2.5-0.7c-0.8-0.3-1.6-0.8-2.3-1.2c-0.8-0.4-1.4-1-2.1-1.6c-0.7-0.5-1.2-1.2-1.8-1.9
				c-0.6-0.7-1-1.4-1.5-2.1c-0.5-0.7-0.9-1.5-1.3-2.2c-0.4-0.7-0.8-1.5-1.1-2.3c-0.4-0.8-0.6-1.5-0.9-2.3c-0.5-1.6-0.9-3.2-1.2-4.8
				c-0.3-1.6-0.5-3.2-0.6-4.8c-0.1-1.6-0.1-3.2,0-4.8L163.5,173.5z"/>
		</g>
		<g id="reflectionFace">
			<path class="st1" d="M182.9,110.5c0.3,2.2,1,4.5,2.3,6.2c0.6,0.9,1.5,1.5,2.2,2.2c0.8,0.7,1.7,1.2,2.7,1.8l0,0.2
				c-1.2,0.2-2.5-0.1-3.6-0.7c-1.1-0.6-1.8-1.8-2.4-2.8c-0.6-1.1-0.9-2.2-1.2-3.4c-0.2-1.2-0.3-2.3-0.2-3.5L182.9,110.5z"/>
		</g>
		<g id="reflectionLeg">
			<path class="st1" d="M178.5,307.2c0.2,1.6,0.6,3.1,1.1,4.6c0.5,1.5,1.2,2.9,2,4.1c0.9,1.2,2,2.1,3.1,3c1.1,1,2.3,1.7,3.8,2.6
				l0,0.2c-1.7,0.3-3.5-0.1-5-1c-1.5-0.9-2.5-2.4-3.3-3.9c-0.8-1.5-1.3-3.1-1.6-4.7c-0.3-1.6-0.4-3.2-0.3-4.8L178.5,307.2z"/>
		</g>
	</g>
</g>
<g id="logoText">
	<path class="st5" d="M129.2,371.8c3.2,4.6,1.1,8.3-4.4,8.3H90.3c-3.7,0-6.2-1.4-8.3-4.6l-28.5-43.7c-0.9-1.4-2.3-1.4-3.2,0
		l-9.4,12.9c-0.7,0.9-0.9,1.8-0.9,3v25.5c0,4.4-2.3,6.9-6.9,6.9H0V226c0-4.6,2.5-6.9,6.9-6.9h26.2c3.8,0,6.9,3.1,6.9,6.9v46.2
		c0,2.3,1.6,2.8,2.8,0.9l36.1-49.6c2.1-3,4.6-4.4,8.3-4.4h34c5.7,0,7.6,3.7,4.4,8.5l-46.4,63.9c-0.7,1.1-0.9,2.1,0,3.2L129.2,371.8z
		"/>
	<path class="st5" d="M291.7,219.6c3.9,0,6.4,1.6,8,5.3l31.3,76.5c0.9,2.1,2.8,1.6,2.8-0.7v-74.2c0-4.6,2.5-6.9,6.9-6.9h25.7
		c4.6,0,6.9,2.3,6.9,6.9v147.1c0,4.4-2.3,6.9-6.9,6.9h-33.8c-3.9,0-6.4-1.6-8-5.3l-31.3-76.5c-0.9-2.1-2.8-1.6-2.8,0.7v74.2
		c0,4.4-2.3,6.9-6.9,6.9h-25.7c-4.4,0-6.9-2.5-6.9-6.9V226.5c0-4.6,2.5-6.9,6.9-6.9H291.7z"/>
	<path class="st5" d="M512,328.6c0,15.2-3.2,55.8-57.7,55.8c-54.5,0-57.7-40.7-57.7-55.8v-57.5c0-15.2,3.2-55.8,57.7-55.8
		c54.5,0,57.7,40.7,57.7,55.8V328.6z M472.5,283.3c0-17.7-1.1-28.5-18.2-28.5c-17,0-18.2,10.8-18.2,28.5v33.1
		c0,17.7,1.1,28.5,18.2,28.5c17,0,18.2-10.8,18.2-28.5V283.3z"/>
	<path class="st6" d="M491.9,380H0v20.9c0,10.8,8.7,19.5,19.5,19.5h472.4c11.1,0,20.1-9,20.1-20.1v-0.3C512,389,503,380,491.9,380z"
		/>
</g>
</svg>
