<svg id="eGnv6UFZdr21" xmlns="http://www.w3.org/2000/svg" xmlns:xlink="http://www.w3.org/1999/xlink" viewBox="0 0 512 512" shape-rendering="geometricPrecision" text-rendering="geometricPrecision">
  <style>
    #eGnv6UFZdr210_tr {
      animation: eGnv6UFZdr210_tr__tr 2000ms linear infinite normal forwards
    }

    @keyframes eGnv6UFZdr210_tr__tr {
      0% {
        transform: translate(253.402663px, 256px) rotate(360deg)
      }

      100% {
        transform: translate(253.402663px, 256px) rotate(0deg)
      }
    }

    #eGnv6UFZdr211_tr {
      animation: eGnv6UFZdr211_tr__tr 2000ms linear infinite normal forwards
    }

    @keyframes eGnv6UFZdr211_tr__tr {
      0% {
        transform: translate(256px, 256px) rotate(360deg)
      }

      100% {
        transform: translate(256px, 256px) rotate(720deg)
      }
    }
  </style>
  <defs>
    <filter id="eGnv6UFZdr210-filter" x="-400%" width="600%" y="-400%" height="600%">
      <feColorMatrix id="eGnv6UFZdr210-filter-sepia-0" type="matrix" values="1 0 0 0 0 0 1 0 0 0 0 0 1 0 0 0 0 0 1 0" result="result" />
    </filter>
  </defs>
  <g transform="matrix(.655217 0 0 0.655217 86.501913 91.917297)">
    <path d="M339.94,470.2v13.08c-.011,5.104071-4.145929,9.239-9.25,9.25h-144c-5.104071-.011-9.239-4.145929-9.25-9.25v-13.08c.060221-11.138908,9.081038-20.150802,20.22-20.2h35.64c4.210982-8.205065,6.427642-17.287546,6.47-26.51.19135-5.395739-.292399-10.794241-1.44-16.07-1.011311-4.543832-2.877826-8.853786-5.5-12.7-1.43176-4.184385-2.564608-8.465148-3.39-12.81-1.120033-5.779271-1.679296-11.653205-1.67-17.54c0-.87,0-1.74,0-2.62c0-1.5.1-3,.22-4.46c0-.53.07-1.07.13-1.61.12-1.2.25-2.42.43-3.61.07-.57.15-1.16.23-1.73v0c.1-.64.21-1.26.31-1.9.020258-.174879.050305-.348485.09-.52.21-1.19.46-2.38.69-3.55.07-.33.16-.65.23-1c.15-.63.29-1.24.45-1.83-.011433-.045966-.011433-.094034,0-.14.16-.7.35-1.38.53-2.05.05-.19.12-.38.16-.58.21-.7.41-1.41.64-2.11s.39-1.25.6-1.87c.07-.19.13-.42.2-.61v0c.28-.77.56-1.53.85-2.29v-.07c1.893461-3.830478,1.93397-8.315949.11-12.18-1-2.21-2-4.47-3-6.76-.12-.26-.23-.53-.32-.79-.36-.86-.69-1.74-1-2.63s-.67-1.78-1-2.67c0,0,0,0,0-.07-.23-.61-.44-1.23-.65-1.85-.007143-.046393-.007143-.093607,0-.14q-.86-2.51-1.65-5.08c-2.494132-8.196953-4.270823-16.595246-5.31-25.1-.771046-6.193482-1.158451-12.428708-1.16-18.67-.026762-11.545457,1.281933-23.055267,3.9-34.3c0-.35,0-.28.11-.6.767462-2.426079,1.158668-4.955426,1.16-7.5-.000882-6.121319-2.986616-11.857661-8-15.37-3.767036-2.521744-6.651552-6.157982-8.25-10.4-8.381685-23.648526-13.050347-48.452483-13.84-73.53-.09-2.68-.13-5.38-.13-8.08v-.1c-.013251-4.15654,2.767997-7.803338,6.78-8.89c4.796566-1.277739,9.479203-2.950109,14-5c11.275152-5.088259,21.420306-12.377539,29.84-21.44.41-.42,1.08-1.19,1.76-2c1.189181-1.381362,1.323639-3.381931.33-4.91-5.4-8.38-9.42-17.22-9.42-28-.009585-6.317918,1.031272-12.593472,3.08-18.57c1.008895-2.938675,3.246419-5.293003,6.13-6.45c3.062316-1.256917,6.300576-2.03275,9.6-2.3c1.395426-.160044,2.804574-.160044,4.2,0c3.299424.26725,6.537684,1.043083,9.6,2.3c2.645968,1.078493,4.746966,3.175888,5.83,5.82v0c.08.18.14.36.21.54c2.049944,5.986016,3.084213,12.272752,3.06,18.6c0,10.83-4,19.67-9.42,28.05-.990869,1.530242-.852328,3.530937.34,4.91.67.82,1.34,1.59,1.75,2c8.415831,9.064979,18.55756,16.35764,29.83,21.45c4.521446,2.048286,9.203949,3.720608,14,5c4.012003,1.086662,6.793251,4.73346,6.78,8.89v.08c0,2.7,0,5.4-.13,8.08-.789653,25.077517-5.458315,49.881474-13.84,73.53-1.598448,4.242018-4.482964,7.878256-8.25,10.4-5.013384,3.512339-7.999118,9.248681-8,15.37.001332,2.544574.392538,5.073921,1.16,7.5.06.32.06.25.11.6c2.618067,11.244733,3.926762,22.754543,3.9,34.3-.001549,6.241292-.388954,12.476518-1.16,18.67-1.039177,8.504754-2.815868,16.903047-5.31,25.1q-.79,2.58-1.65,5.08c-.004219.050218-.021452.09847-.05.14-.21.62-.42,1.24-.65,1.85c0,0,0,.06,0,.07-.31.89-.65,1.8-1,2.67s-.67,1.77-1,2.63c-.09.26-.2.53-.31.79-.64,1.78-.79,2.82-1.46,4.25-2.27,4.89-3.73,10-1.39,14.69v.07c.29.76.57,1.52.85,2.29v0c.07.19.14.42.21.61.2.62.4,1.24.59,1.87s.43,1.41.64,2.11c0,.2.11.39.16.58.18.67.38,1.35.53,2.05.016013.045293.016013.094707,0,.14.17.59.3,1.2.46,1.83.07.31.15.63.22,1c.23,1.17.48,2.36.69,3.55c0,.18.07.34.1.52.09.64.2,1.26.3,1.9v0c.08.57.17,1.16.24,1.73.18,1.19.3,2.41.42,3.61.06.54.1,1.08.13,1.61.12,1.48.21,3,.22,4.46c0,.88.06,1.75.06,2.62.006001,5.887119-.556611,11.761056-1.68,17.54-.825392,4.344852-1.95824,8.625615-3.39,12.81-2.622174,3.846214-4.488689,8.156168-5.5,12.7-1.147601,5.275759-1.63135,10.674261-1.44,16.07.039666,9.225607,2.245562,18.312939,6.44,26.53h35.64c11.170185.005336,20.239503,9.029978,20.3,20.2Z" fill="#dfca4e" />
    <g>
      <path d="M213.37,145.87c1.51,10.26,4.67,20.36,10.51,28.92c1.422493,2.007826,3.073575,3.84348,4.92,5.47c3.511113,3.317314,7.272209,6.359622,11.25,9.1c2.1,1.39,4.35,2.69,6.77,4.16l-.13.71c-8.43,1.57-17.9-2.31-23.17-9.17-5.047506-6.792514-8.443866-14.667138-9.92-23-.987882-5.332891-1.30701-10.768145-.95-16.18h.72Z" fill="#efd978" />
    </g>
    <g>
      <path d="M245.94,40.18c1.15,8.35,4.82,13.16,12.1,17.24l-.05.25c-6.8,1.23-11-5.82-12-11.63-.342267-1.929929-.456384-3.893414-.34-5.85Z" fill="#efd978" />
    </g>
    <g>
      <path d="M238.48,370.2c.87,5.7,2.69,11.54,6.44,15.93c1.253144,1.29863,2.589288,2.514521,4,3.64c1.961435,1.635957,4.078178,3.076147,6.32,4.3l-.06.36c-9.64,1.58-15.1-7.94-16.58-16.12-.478061-2.671719-.639175-5.390519-.48-8.1Z" fill="#efd978" />
    </g>
  </g>
  <g id="eGnv6UFZdr210_tr" transform="translate(253.402663,256) rotate(360)">
    <path d="M0,-98.923403c54.633887,0,98.923403,44.289516,98.923403,98.923403" transform="scale(-2.302642,-2.302642) translate(0,0)" filter="url(#eGnv6UFZdr210-filter)" fill="none" stroke="#ea2c0b" stroke-width="10" stroke-linecap="round" />
  </g>
  <g id="eGnv6UFZdr211_tr" transform="translate(256,256) rotate(360)">
    <path d="M0,-170.86148c94.36419,0,170.86148,76.49729,170.86148,170.86148" transform="scale(1.155893,1.155893) translate(0,0)" fill="none" stroke="#dfca4e" stroke-width="20" stroke-linecap="round" />
  </g>
</svg>